<svg width="24" height="24" viewBox="0 0 24 24" fill="none" xmlns="http://www.w3.org/2000/svg">
<path d="M8.99924 8.94639C8.99924 7.55688 8.05415 7.55688 8.05415 7.55688H4.17285V10.5358H7.81351C8.44228 10.5358 8.99924 10.334 8.99924 8.94639ZM8.05415 12.5948H4.17285V16.1617H7.87949C8.43646 16.1462 9.46694 15.9677 9.46694 14.4268C9.46112 12.5832 8.05415 12.5948 8.05415 12.5948ZM18.0039 10.5358C15.9409 10.5358 15.6537 12.5929 15.6537 12.5929H20.0396C20.0396 12.5929 20.0668 10.5358 18.0039 10.5358Z" fill="black"/>
<path d="M21.1705 0H2.83141C2.08047 0 1.36029 0.298308 0.8293 0.8293C0.298308 1.36029 0 2.08047 0 2.83141V21.1686C0 21.9195 0.298308 22.6397 0.8293 23.1707C1.36029 23.7017 2.08047 24 2.83141 24H21.1686C21.9195 24 22.6397 23.7017 23.1707 23.1707C23.7017 22.6397 24 21.9195 24 21.1686V2.83141C24 2.08081 23.702 1.36092 23.1714 0.829985C22.6408 0.29905 21.9211 0.000514462 21.1705 0ZM15.0788 5.96943H20.5864V7.61511H15.0788V5.96943ZM12.294 14.5937C12.294 18.669 8.05369 18.5351 8.05369 18.5351H1.10617V5.18347H8.05369C10.1651 5.18347 11.8321 6.34786 11.8321 8.73874C11.8321 11.1296 9.79445 11.279 9.79445 11.279C12.4803 11.279 12.294 14.5937 12.294 14.5937ZM22.5969 14.3763H15.6882C15.6882 16.8565 18.0383 16.7051 18.0383 16.7051C20.2565 16.7051 20.173 15.269 20.173 15.269H22.5193C22.5193 19.0805 17.951 18.8185 17.951 18.8185C12.4687 18.8185 12.8219 13.7146 12.8219 13.7146C12.8219 13.7146 12.8219 8.58543 17.951 8.58543C23.3557 8.58155 22.5989 14.3763 22.5989 14.3763H22.5969Z" fill="black"/>
</svg>
