<svg width="65" height="64" viewBox="0 0 65 64" fill="none" xmlns="http://www.w3.org/2000/svg">
<path d="M13.5732 31.8311V50.4266H32.1687L28.2906 46.5485H17.4513V35.7092L13.5732 31.8311Z" fill="white"/>
<path d="M63.7366 60.6842L58.1716 55.0415V60.1219H3.87814V52.0748H7.75624V48.9723H3.87814V36.0776H7.75624V32.9751H3.87814V20.5652H7.75624V17.4627H3.87814V6.62344L34.7866 37.3574V31.8893L3.31581 0.573602C3.04459 0.300139 2.69808 0.11364 2.32046 0.0378819C1.94283 -0.0378762 1.5512 0.000539106 1.19549 0.14823C0.839787 0.295922 0.53612 0.546197 0.32321 0.867149C0.1103 1.1881 -0.00220699 1.56519 3.28028e-05 1.95033V62.0609C3.28028e-05 62.5752 0.204325 63.0684 0.567968 63.432C0.93161 63.7957 1.42482 64 1.93908 64H62.3599C62.7451 64.0022 63.1221 63.8897 63.4431 63.6768C63.764 63.4639 64.0143 63.1602 64.162 62.8045C64.3097 62.4488 64.3481 62.0572 64.2724 61.6795C64.1966 61.3019 64.0101 60.9554 63.7366 60.6842Z" fill="white"/>
<path d="M42.6594 56.2437H50.4156C51.4441 56.2437 52.4305 55.8351 53.1578 55.1078C53.8851 54.3805 54.2937 53.3941 54.2937 52.3656V14.9419L49.8338 6.73972C49.4889 6.14214 48.9908 5.64741 48.3909 5.30655C47.791 4.9657 47.111 4.79107 46.4211 4.80067C45.7156 4.80627 45.0249 5.00424 44.4236 5.37325C43.8222 5.74227 43.3329 6.26836 43.0084 6.89484L38.7812 14.9807V52.3656C38.7812 53.3941 39.1898 54.3805 39.9171 55.1078C40.6444 55.8351 41.6308 56.2437 42.6594 56.2437ZM42.6594 15.9114L46.4211 8.60121L50.4156 15.9308V44.6094H42.6594V15.9114ZM42.6594 47.77H50.4156V52.5013H42.6594V47.77Z" fill="white"/>
</svg>
