<svg width="30" height="40" viewBox="0 0 30 40" fill="none" xmlns="http://www.w3.org/2000/svg">
<path d="M28.928 39.7734C28.6044 39.9417 28.2411 40.0187 27.8772 39.9962C27.5132 39.9736 27.1622 39.8524 26.8619 39.6454L0.86105 21.6461C0.595366 21.4621 0.378249 21.2164 0.22829 20.9301C0.0783309 20.6438 -4.45773e-07 20.3254 -4.45773e-07 20.0022C-4.45773e-07 19.679 0.0783309 19.3606 0.22829 19.0743C0.378249 18.788 0.595366 18.5423 0.86105 18.3583L26.8619 0.35897C27.1616 0.149888 27.513 0.0270999 27.8777 0.00399427C28.2425 -0.0191114 28.6065 0.0583519 28.9303 0.227938C29.254 0.397525 29.5249 0.652725 29.7136 0.965716C29.9022 1.27871 30.0013 1.63748 30 2.00291V38.0015C30 38.3666 29.9002 38.7247 29.7112 39.037C29.5222 39.3494 29.2514 39.604 28.928 39.7734ZM25.9999 5.82076L5.5132 20.0022L25.9999 34.1837V5.82076Z" fill="#414141"/>
</svg>
