<svg width="30" height="40" viewBox="0 0 30 40" fill="none" xmlns="http://www.w3.org/2000/svg">
<path d="M1.07205 39.7734C1.39559 39.9417 1.75885 40.0187 2.12285 39.9962C2.48684 39.9736 2.83782 39.8524 3.13811 39.6454L29.139 21.6461C29.4046 21.4621 29.6218 21.2164 29.7717 20.9301C29.9217 20.6438 30 20.3254 30 20.0022C30 19.679 29.9217 19.3606 29.7717 19.0743C29.6218 18.788 29.4046 18.5423 29.139 18.3583L3.13811 0.35897C2.83838 0.149888 2.487 0.0270999 2.12227 0.00399427C1.75754 -0.0191114 1.39347 0.0583519 1.06975 0.227938C0.746027 0.397525 0.47508 0.652725 0.286446 0.965716C0.0978125 1.27871 -0.00126637 1.63748 1.222e-05 2.00291V38.0015C-4.79438e-05 38.3666 0.0998215 38.7247 0.288796 39.037C0.477771 39.3494 0.74864 39.604 1.07205 39.7734ZM4.00014 5.82076L24.4868 20.0022L4.00014 34.1837V5.82076Z" fill="#414141"/>
</svg>
